<svg width="480" height="251" viewBox="0 0 480 251" fill="none" xmlns="http://www.w3.org/2000/svg">
<path d="M479.5 102.5C473.154 150 447.036 166.5 378 166.5C308.964 166.5 207.846 137.511 207.846 92.5C207.846 47.4888 263.81 11 332.846 11C401.882 11 479.5 57.4888 479.5 102.5Z" fill="black"/>
<path d="M393.542 56.3046C409.356 98.4464 442.635 142.246 378 166.5C313.365 190.754 166.814 192.642 151 150.5C135.186 108.358 183.243 48.1702 247.877 23.916C312.512 -0.338113 377.729 14.1627 393.542 56.3046Z" fill="black"/>
<path d="M315.144 78.871C334.36 116.355 346.202 178.383 332.846 177.906C320.017 177.447 12.5855 296.376 3.56236 231C3.1921 228.317 3.78159 224.5 2.5 222C-16.7157 184.516 152.532 72.3965 211.999 41.9112C271.467 11.4259 295.929 41.3869 315.144 78.871Z" fill="black"/>
<ellipse cx="238.5" cy="40" rx="26.5" ry="31" transform="rotate(-25.8939 238.5 40)" fill="black"/>
</svg>
