<svg width="535" height="477" viewBox="0 0 535 477" fill="none" xmlns="http://www.w3.org/2000/svg">
<path d="M498.512 101.96C492.166 149.46 466.047 165.96 397.012 165.96C327.976 165.96 226.858 136.972 226.858 91.9604C226.858 46.9492 282.822 10.4604 351.858 10.4604C420.893 10.4604 498.512 56.9492 498.512 101.96Z" fill="black"/>
<path d="M412.554 55.765C428.368 97.9069 461.646 141.706 397.012 165.96C332.377 190.215 185.825 192.102 170.012 149.96C154.198 107.819 202.254 47.6306 266.889 23.3765C331.524 -0.877664 396.74 13.6232 412.554 55.765Z" fill="black"/>
<path d="M334.156 78.3314C353.372 115.816 365.213 177.843 351.858 177.366C339.028 176.908 31.5971 295.837 22.574 230.46C22.2037 227.778 22.7932 223.96 21.5116 221.46C2.29595 183.976 171.543 71.8569 231.011 41.3717C290.479 10.8864 314.94 40.8473 334.156 78.3314Z" fill="black"/>
<ellipse cx="257.512" cy="39.4604" rx="26.5" ry="31" transform="rotate(-25.8939 257.512 39.4604)" fill="black"/>
<line x1="11" y1="345" x2="11" y2="476" stroke="black" stroke-width="22"/>
<line x1="278" y1="322" x2="278" y2="476" stroke="black" stroke-width="22"/>
<line x1="278" y1="322" x2="278" y2="476" stroke="black" stroke-width="22"/>
<path d="M462 380H523" stroke="black" stroke-width="22"/>
<line x1="472" y1="389" x2="472" y2="345" stroke="black" stroke-width="22"/>
<line x1="240" y1="421" x2="141" y2="421" stroke="black" stroke-width="22"/>
<circle cx="53" cy="423" r="42" stroke="black" stroke-width="22"/>
<path d="M472 366L472 434C472 476.198 523.5 476.5 523.5 434" stroke="black" stroke-width="22"/>
<path fill-rule="evenodd" clip-rule="evenodd" d="M217.061 435.9C211.355 446.666 200.034 454 187 454C168.222 454 153 438.778 153 420C153 401.222 168.222 386 187 386C205.778 386 221 401.222 221 420C221 424.224 220.23 428.268 218.822 432H241.711C242.555 428.134 243 424.119 243 420C243 389.072 217.928 364 187 364C156.072 364 131 389.072 131 420C131 450.928 156.072 476 187 476C209.096 476 228.203 463.203 237.314 444.616L217.061 435.9Z" fill="black"/>
<line x1="428" y1="421" x2="329" y2="421" stroke="black" stroke-width="22"/>
<path fill-rule="evenodd" clip-rule="evenodd" d="M405.061 435.9C399.355 446.666 388.034 454 375 454C356.222 454 341 438.778 341 420C341 401.222 356.222 386 375 386C393.778 386 409 401.222 409 420C409 424.224 408.23 428.268 406.822 432H429.711C430.555 428.134 431 424.119 431 420C431 389.072 405.928 364 375 364C344.072 364 319 389.072 319 420C319 450.928 344.072 476 375 476C397.096 476 416.203 463.203 425.314 444.616L405.061 435.9Z" fill="black"/>
</svg>
