<svg width="535" height="155" viewBox="0 0 535 155" fill="none" xmlns="http://www.w3.org/2000/svg">
<line x1="11" y1="-4.80825e-07" x2="11" y2="154" stroke="black" stroke-width="22"/>
<line x1="278" y1="-4.80825e-07" x2="278" y2="154" stroke="black" stroke-width="22"/>
<line x1="278" y1="-4.80825e-07" x2="278" y2="154" stroke="black" stroke-width="22"/>
<path d="M462 58L523 58" stroke="black" stroke-width="22"/>
<line x1="472" y1="67" x2="472" y2="23" stroke="black" stroke-width="22"/>
<line x1="240" y1="99" x2="141" y2="99" stroke="black" stroke-width="22"/>
<circle cx="53" cy="101" r="42" stroke="black" stroke-width="22"/>
<path d="M472 44L472 112C472 154.198 523.5 154.5 523.5 112" stroke="black" stroke-width="22"/>
<path fill-rule="evenodd" clip-rule="evenodd" d="M217.061 113.9C211.355 124.666 200.034 132 187 132C168.222 132 153 116.778 153 98C153 79.2223 168.222 64 187 64C205.778 64 221 79.2223 221 98C221 102.224 220.23 106.268 218.822 110H241.711C242.555 106.134 243 102.119 243 98C243 67.0721 217.928 42 187 42C156.072 42 131 67.0721 131 98C131 128.928 156.072 154 187 154C209.096 154 228.203 141.203 237.314 122.616L217.061 113.9Z" fill="black"/>
<line x1="428" y1="99" x2="329" y2="99" stroke="black" stroke-width="22"/>
<path fill-rule="evenodd" clip-rule="evenodd" d="M405.061 113.9C399.355 124.666 388.034 132 375 132C356.222 132 341 116.778 341 98C341 79.2223 356.222 64 375 64C393.778 64 409 79.2223 409 98C409 102.224 408.23 106.268 406.822 110H429.711C430.555 106.134 431 102.119 431 98C431 67.0721 405.928 42 375 42C344.072 42 319 67.0721 319 98C319 128.928 344.072 154 375 154C397.096 154 416.203 141.203 425.314 122.616L405.061 113.9Z" fill="black"/>
</svg>
